<?xml version="1.0" encoding="UTF-8" standalone="no"?>
<!DOCTYPE svg PUBLIC "-//W3C//DTD SVG 1.1//EN"
 "http://www.w3.org/Graphics/SVG/1.1/DTD/svg11.dtd">
<!-- Generated by graphviz version 2.38.0 (20140413.2041)
 -->
<!-- Title: G Pages: 1 -->
<svg width="175pt" height="58pt"
 viewBox="7.20 7.20 168.20 51.20" xmlns="http://www.w3.org/2000/svg" xmlns:xlink="http://www.w3.org/1999/xlink">
<g id="graph0" class="graph" transform="scale(1 1) rotate(0) translate(11.2 47.2)">
<title>G</title>
<polygon fill="white" stroke="none" points="-4,4 -4,-40 157,-40 157,4 -4,4"/>
<!-- start -->
<g id="node1" class="node"><title>start</title>
</g>
<!-- 0 -->
<g id="node2" class="node"><title>0</title>
<ellipse fill="none" stroke="black" stroke-width="2" cx="56" cy="-18" rx="18" ry="18"/>
<text text-anchor="middle" x="56" y="-14.3" font-family="Times New Roman,serif" font-size="14.00">0</text>
</g>
<!-- start&#45;&gt;0 -->
<g id="edge2" class="edge"><title>start&#45;&gt;0</title>
<path fill="none" stroke="black" stroke-dasharray="5,2" d="M1.15491,-18C2.67247,-18 15.0966,-18 27.6277,-18"/>
<polygon fill="black" stroke="black" points="27.9419,-21.5001 37.9419,-18 27.9418,-14.5001 27.9419,-21.5001"/>
</g>
<!-- 1 -->
<g id="node3" class="node"><title>1</title>
<ellipse fill="none" stroke="black" stroke-width="2" cx="135" cy="-18" rx="18" ry="18"/>
<text text-anchor="middle" x="135" y="-14.3" font-family="Times New Roman,serif" font-size="14.00">1</text>
</g>
<!-- 0&#45;&gt;1 -->
<g id="edge1" class="edge"><title>0&#45;&gt;1</title>
<path fill="none" stroke="black" d="M74.0888,-18C83.659,-18 95.8172,-18 106.677,-18"/>
<polygon fill="black" stroke="black" points="106.959,-21.5001 116.959,-18 106.959,-14.5001 106.959,-21.5001"/>
<text text-anchor="middle" x="95.5" y="-21.8" font-family="Times New Roman,serif" font-size="14.00">a</text>
</g>
</g>
</svg>
