<?xml version="1.0" encoding="UTF-8" standalone="no"?>
<!DOCTYPE svg PUBLIC "-//W3C//DTD SVG 1.1//EN"
 "http://www.w3.org/Graphics/SVG/1.1/DTD/svg11.dtd">
<!-- Generated by graphviz version 2.38.0 (20140413.2041)
 -->
<!-- Title: G Pages: 1 -->
<svg width="490pt" height="436pt"
 viewBox="7.20 7.20 482.56 429.20" xmlns="http://www.w3.org/2000/svg" xmlns:xlink="http://www.w3.org/1999/xlink">
<g id="graph0" class="graph" transform="scale(1 1) rotate(0) translate(11.2 425.2)">
<title>G</title>
<polygon fill="white" stroke="none" points="-4,4 -4,-418 471.355,-418 471.355,4 -4,4"/>
<!-- E1 -->
<g id="node1" class="node"><title>E1</title>
<ellipse fill="none" stroke="black" cx="17.6777" cy="-206" rx="17.8571" ry="17.8571"/>
<text text-anchor="middle" x="17.6777" y="-202.3" font-family="Times New Roman,serif" font-size="14.00">E</text>
</g>
<!-- S2 -->
<g id="node2" class="node"><title>S2</title>
<ellipse fill="none" stroke="black" cx="89.3553" cy="-247" rx="18" ry="18"/>
<text text-anchor="middle" x="89.3553" y="-243.3" font-family="Times New Roman,serif" font-size="14.00">S</text>
</g>
<!-- E1&#45;&gt;S2 -->
<g id="edge1" class="edge"><title>E1&#45;&gt;S2</title>
<path fill="none" stroke="black" d="M33.4545,-214.695C42.3853,-219.95 53.9843,-226.775 64.2186,-232.797"/>
<polygon fill="black" stroke="black" points="62.7245,-235.979 73.1181,-238.034 66.2745,-229.946 62.7245,-235.979"/>
</g>
<!-- S3 -->
<g id="node3" class="node"><title>S3</title>
<ellipse fill="none" stroke="black" cx="89.3553" cy="-166" rx="18" ry="18"/>
<text text-anchor="middle" x="89.3553" y="-162.3" font-family="Times New Roman,serif" font-size="14.00">S</text>
</g>
<!-- E1&#45;&gt;S3 -->
<g id="edge2" class="edge"><title>E1&#45;&gt;S3</title>
<path fill="none" stroke="black" d="M33.4545,-197.517C42.3853,-192.39 53.9843,-185.731 64.2186,-179.856"/>
<polygon fill="black" stroke="black" points="66.1881,-182.761 73.1181,-174.747 62.703,-176.691 66.1881,-182.761"/>
</g>
<!-- C16 -->
<g id="node16" class="node"><title>C16</title>
<ellipse fill="none" stroke="black" cx="161.355" cy="-342" rx="18" ry="18"/>
<text text-anchor="middle" x="161.355" y="-338.3" font-family="Times New Roman,serif" font-size="14.00">C</text>
</g>
<!-- S2&#45;&gt;C16 -->
<g id="edge15" class="edge"><title>S2&#45;&gt;C16</title>
<path fill="none" stroke="black" d="M100.684,-261.018C112.058,-276.453 130.503,-301.486 143.879,-319.639"/>
<polygon fill="black" stroke="black" points="141.234,-321.951 149.984,-327.925 146.87,-317.798 141.234,-321.951"/>
</g>
<!-- C17 -->
<g id="node17" class="node"><title>C17</title>
<ellipse fill="none" stroke="black" cx="161.355" cy="-247" rx="18" ry="18"/>
<text text-anchor="middle" x="161.355" y="-243.3" font-family="Times New Roman,serif" font-size="14.00">C</text>
</g>
<!-- S2&#45;&gt;C17 -->
<g id="edge16" class="edge"><title>S2&#45;&gt;C17</title>
<path fill="none" stroke="black" d="M107.659,-247C115.373,-247 124.643,-247 133.243,-247"/>
<polygon fill="black" stroke="black" points="133.251,-250.5 143.251,-247 133.251,-243.5 133.251,-250.5"/>
</g>
<!-- C4 -->
<g id="node4" class="node"><title>C4</title>
<ellipse fill="none" stroke="black" cx="161.355" cy="-166" rx="18" ry="18"/>
<text text-anchor="middle" x="161.355" y="-162.3" font-family="Times New Roman,serif" font-size="14.00">C</text>
</g>
<!-- S3&#45;&gt;C4 -->
<g id="edge3" class="edge"><title>S3&#45;&gt;C4</title>
<path fill="none" stroke="black" d="M107.659,-166C115.373,-166 124.643,-166 133.243,-166"/>
<polygon fill="black" stroke="black" points="133.251,-169.5 143.251,-166 133.251,-162.5 133.251,-169.5"/>
</g>
<!-- C5 -->
<g id="node5" class="node"><title>C5</title>
<ellipse fill="none" stroke="black" cx="161.355" cy="-72" rx="18" ry="18"/>
<text text-anchor="middle" x="161.355" y="-68.3" font-family="Times New Roman,serif" font-size="14.00">C</text>
</g>
<!-- S3&#45;&gt;C5 -->
<g id="edge4" class="edge"><title>S3&#45;&gt;C5</title>
<path fill="none" stroke="black" d="M100.987,-151.723C112.359,-136.452 130.546,-112.03 143.796,-94.2364"/>
<polygon fill="black" stroke="black" points="146.688,-96.2138 149.853,-86.1029 141.073,-92.0329 146.688,-96.2138"/>
</g>
<!-- C13 -->
<g id="node13" class="node"><title>C13</title>
<ellipse fill="none" stroke="black" cx="233.355" cy="-180" rx="18" ry="18"/>
<text text-anchor="middle" x="233.355" y="-176.3" font-family="Times New Roman,serif" font-size="14.00">C</text>
</g>
<!-- C4&#45;&gt;C13 -->
<g id="edge12" class="edge"><title>C4&#45;&gt;C13</title>
<path fill="none" stroke="black" d="M179.3,-169.389C187.211,-170.971 196.816,-172.892 205.667,-174.662"/>
<polygon fill="black" stroke="black" points="205.074,-178.113 215.566,-176.642 206.447,-171.249 205.074,-178.113"/>
</g>
<!-- c14 -->
<g id="node14" class="node"><title>c14</title>
<ellipse fill="none" stroke="black" cx="233.355" cy="-126" rx="18" ry="18"/>
<text text-anchor="middle" x="233.355" y="-122.3" font-family="Times New Roman,serif" font-size="14.00">c</text>
</g>
<!-- C4&#45;&gt;c14 -->
<g id="edge13" class="edge"><title>C4&#45;&gt;c14</title>
<path fill="none" stroke="black" d="M177.544,-157.321C186.534,-152.184 198.123,-145.561 208.328,-139.73"/>
<polygon fill="black" stroke="black" points="210.25,-142.663 217.196,-134.662 206.777,-136.585 210.25,-142.663"/>
</g>
<!-- C6 -->
<g id="node6" class="node"><title>C6</title>
<ellipse fill="none" stroke="black" cx="233.355" cy="-72" rx="18" ry="18"/>
<text text-anchor="middle" x="233.355" y="-68.3" font-family="Times New Roman,serif" font-size="14.00">C</text>
</g>
<!-- C5&#45;&gt;C6 -->
<g id="edge5" class="edge"><title>C5&#45;&gt;C6</title>
<path fill="none" stroke="black" d="M179.659,-72C187.373,-72 196.643,-72 205.243,-72"/>
<polygon fill="black" stroke="black" points="205.251,-75.5001 215.251,-72 205.251,-68.5001 205.251,-75.5001"/>
</g>
<!-- c7 -->
<g id="node7" class="node"><title>c7</title>
<ellipse fill="none" stroke="black" cx="233.355" cy="-18" rx="18" ry="18"/>
<text text-anchor="middle" x="233.355" y="-14.3" font-family="Times New Roman,serif" font-size="14.00">c</text>
</g>
<!-- C5&#45;&gt;c7 -->
<g id="edge6" class="edge"><title>C5&#45;&gt;c7</title>
<path fill="none" stroke="black" d="M176.185,-61.3313C185.964,-53.7874 199.275,-43.5188 210.485,-34.8713"/>
<polygon fill="black" stroke="black" points="212.774,-37.5258 218.554,-28.6465 208.499,-31.9833 212.774,-37.5258"/>
</g>
<!-- C8 -->
<g id="node8" class="node"><title>C8</title>
<ellipse fill="none" stroke="black" cx="305.355" cy="-99" rx="18" ry="18"/>
<text text-anchor="middle" x="305.355" y="-95.3" font-family="Times New Roman,serif" font-size="14.00">C</text>
</g>
<!-- C6&#45;&gt;C8 -->
<g id="edge7" class="edge"><title>C6&#45;&gt;C8</title>
<path fill="none" stroke="black" d="M250.591,-78.2622C258.984,-81.4996 269.421,-85.5253 278.86,-89.1661"/>
<polygon fill="black" stroke="black" points="277.618,-92.4385 288.208,-92.7718 280.138,-85.9075 277.618,-92.4385"/>
</g>
<!-- c9 -->
<g id="node9" class="node"><title>c9</title>
<ellipse fill="none" stroke="black" cx="305.355" cy="-45" rx="18" ry="18"/>
<text text-anchor="middle" x="305.355" y="-41.3" font-family="Times New Roman,serif" font-size="14.00">c</text>
</g>
<!-- C6&#45;&gt;c9 -->
<g id="edge8" class="edge"><title>C6&#45;&gt;c9</title>
<path fill="none" stroke="black" d="M250.591,-65.7378C258.984,-62.5004 269.421,-58.4747 278.86,-54.8339"/>
<polygon fill="black" stroke="black" points="280.138,-58.0925 288.208,-51.2282 277.618,-51.5615 280.138,-58.0925"/>
</g>
<!-- C10 -->
<g id="node10" class="node"><title>C10</title>
<ellipse fill="none" stroke="black" cx="377.355" cy="-126" rx="18" ry="18"/>
<text text-anchor="middle" x="377.355" y="-122.3" font-family="Times New Roman,serif" font-size="14.00">C</text>
</g>
<!-- C8&#45;&gt;C10 -->
<g id="edge9" class="edge"><title>C8&#45;&gt;C10</title>
<path fill="none" stroke="black" d="M322.591,-105.262C330.984,-108.5 341.421,-112.525 350.86,-116.166"/>
<polygon fill="black" stroke="black" points="349.618,-119.438 360.208,-119.772 352.138,-112.907 349.618,-119.438"/>
</g>
<!-- c11 -->
<g id="node11" class="node"><title>c11</title>
<ellipse fill="none" stroke="black" cx="377.355" cy="-72" rx="18" ry="18"/>
<text text-anchor="middle" x="377.355" y="-68.3" font-family="Times New Roman,serif" font-size="14.00">c</text>
</g>
<!-- C8&#45;&gt;c11 -->
<g id="edge10" class="edge"><title>C8&#45;&gt;c11</title>
<path fill="none" stroke="black" d="M322.591,-92.7378C330.984,-89.5004 341.421,-85.4747 350.86,-81.8339"/>
<polygon fill="black" stroke="black" points="352.138,-85.0925 360.208,-78.2282 349.618,-78.5615 352.138,-85.0925"/>
</g>
<!-- d12 -->
<g id="node12" class="node"><title>d12</title>
<ellipse fill="none" stroke="black" cx="449.355" cy="-126" rx="18" ry="18"/>
<text text-anchor="middle" x="449.355" y="-122.3" font-family="Times New Roman,serif" font-size="14.00">d</text>
</g>
<!-- C10&#45;&gt;d12 -->
<g id="edge11" class="edge"><title>C10&#45;&gt;d12</title>
<path fill="none" stroke="black" d="M395.659,-126C403.373,-126 412.643,-126 421.243,-126"/>
<polygon fill="black" stroke="black" points="421.251,-129.5 431.251,-126 421.251,-122.5 421.251,-129.5"/>
</g>
<!-- d15 -->
<g id="node15" class="node"><title>d15</title>
<ellipse fill="none" stroke="black" cx="305.355" cy="-180" rx="18" ry="18"/>
<text text-anchor="middle" x="305.355" y="-176.3" font-family="Times New Roman,serif" font-size="14.00">d</text>
</g>
<!-- C13&#45;&gt;d15 -->
<g id="edge14" class="edge"><title>C13&#45;&gt;d15</title>
<path fill="none" stroke="black" d="M251.659,-180C259.373,-180 268.643,-180 277.243,-180"/>
<polygon fill="black" stroke="black" points="277.251,-183.5 287.251,-180 277.251,-176.5 277.251,-183.5"/>
</g>
<!-- C23 -->
<g id="node23" class="node"><title>C23</title>
<ellipse fill="none" stroke="black" cx="233.355" cy="-396" rx="18" ry="18"/>
<text text-anchor="middle" x="233.355" y="-392.3" font-family="Times New Roman,serif" font-size="14.00">C</text>
</g>
<!-- C16&#45;&gt;C23 -->
<g id="edge22" class="edge"><title>C16&#45;&gt;C23</title>
<path fill="none" stroke="black" d="M176.185,-352.669C185.964,-360.213 199.275,-370.481 210.485,-379.129"/>
<polygon fill="black" stroke="black" points="208.499,-382.017 218.554,-385.354 212.774,-376.474 208.499,-382.017"/>
</g>
<!-- c24 -->
<g id="node24" class="node"><title>c24</title>
<ellipse fill="none" stroke="black" cx="233.355" cy="-342" rx="18" ry="18"/>
<text text-anchor="middle" x="233.355" y="-338.3" font-family="Times New Roman,serif" font-size="14.00">c</text>
</g>
<!-- C16&#45;&gt;c24 -->
<g id="edge23" class="edge"><title>C16&#45;&gt;c24</title>
<path fill="none" stroke="black" d="M179.659,-342C187.373,-342 196.643,-342 205.243,-342"/>
<polygon fill="black" stroke="black" points="205.251,-345.5 215.251,-342 205.251,-338.5 205.251,-345.5"/>
</g>
<!-- C18 -->
<g id="node18" class="node"><title>C18</title>
<ellipse fill="none" stroke="black" cx="233.355" cy="-288" rx="18" ry="18"/>
<text text-anchor="middle" x="233.355" y="-284.3" font-family="Times New Roman,serif" font-size="14.00">C</text>
</g>
<!-- C17&#45;&gt;C18 -->
<g id="edge17" class="edge"><title>C17&#45;&gt;C18</title>
<path fill="none" stroke="black" d="M177.201,-255.695C186.388,-261.076 198.387,-268.104 208.846,-274.23"/>
<polygon fill="black" stroke="black" points="207.134,-277.284 217.532,-279.317 210.672,-271.243 207.134,-277.284"/>
</g>
<!-- c19 -->
<g id="node19" class="node"><title>c19</title>
<ellipse fill="none" stroke="black" cx="233.355" cy="-234" rx="18" ry="18"/>
<text text-anchor="middle" x="233.355" y="-230.3" font-family="Times New Roman,serif" font-size="14.00">c</text>
</g>
<!-- C17&#45;&gt;c19 -->
<g id="edge18" class="edge"><title>C17&#45;&gt;c19</title>
<path fill="none" stroke="black" d="M179.3,-243.853C187.211,-242.384 196.816,-240.6 205.667,-238.956"/>
<polygon fill="black" stroke="black" points="206.374,-242.385 215.566,-237.118 205.095,-235.503 206.374,-242.385"/>
</g>
<!-- C20 -->
<g id="node20" class="node"><title>C20</title>
<ellipse fill="none" stroke="black" cx="305.355" cy="-315" rx="18" ry="18"/>
<text text-anchor="middle" x="305.355" y="-311.3" font-family="Times New Roman,serif" font-size="14.00">C</text>
</g>
<!-- C18&#45;&gt;C20 -->
<g id="edge19" class="edge"><title>C18&#45;&gt;C20</title>
<path fill="none" stroke="black" d="M250.591,-294.262C258.984,-297.5 269.421,-301.525 278.86,-305.166"/>
<polygon fill="black" stroke="black" points="277.618,-308.438 288.208,-308.772 280.138,-301.907 277.618,-308.438"/>
</g>
<!-- c21 -->
<g id="node21" class="node"><title>c21</title>
<ellipse fill="none" stroke="black" cx="305.355" cy="-261" rx="18" ry="18"/>
<text text-anchor="middle" x="305.355" y="-257.3" font-family="Times New Roman,serif" font-size="14.00">c</text>
</g>
<!-- C18&#45;&gt;c21 -->
<g id="edge20" class="edge"><title>C18&#45;&gt;c21</title>
<path fill="none" stroke="black" d="M250.591,-281.738C258.984,-278.5 269.421,-274.475 278.86,-270.834"/>
<polygon fill="black" stroke="black" points="280.138,-274.093 288.208,-267.228 277.618,-267.562 280.138,-274.093"/>
</g>
<!-- d22 -->
<g id="node22" class="node"><title>d22</title>
<ellipse fill="none" stroke="black" cx="377.355" cy="-315" rx="18" ry="18"/>
<text text-anchor="middle" x="377.355" y="-311.3" font-family="Times New Roman,serif" font-size="14.00">d</text>
</g>
<!-- C20&#45;&gt;d22 -->
<g id="edge21" class="edge"><title>C20&#45;&gt;d22</title>
<path fill="none" stroke="black" d="M323.659,-315C331.373,-315 340.643,-315 349.243,-315"/>
<polygon fill="black" stroke="black" points="349.251,-318.5 359.251,-315 349.251,-311.5 349.251,-318.5"/>
</g>
<!-- d25 -->
<g id="node25" class="node"><title>d25</title>
<ellipse fill="none" stroke="black" cx="305.355" cy="-396" rx="18" ry="18"/>
<text text-anchor="middle" x="305.355" y="-392.3" font-family="Times New Roman,serif" font-size="14.00">d</text>
</g>
<!-- C23&#45;&gt;d25 -->
<g id="edge24" class="edge"><title>C23&#45;&gt;d25</title>
<path fill="none" stroke="black" d="M251.659,-396C259.373,-396 268.643,-396 277.243,-396"/>
<polygon fill="black" stroke="black" points="277.251,-399.5 287.251,-396 277.251,-392.5 277.251,-399.5"/>
</g>
</g>
</svg>
