<?xml version="1.0" encoding="UTF-8" standalone="no"?>
<!DOCTYPE svg PUBLIC "-//W3C//DTD SVG 1.1//EN"
 "http://www.w3.org/Graphics/SVG/1.1/DTD/svg11.dtd">
<!-- Generated by graphviz version 2.38.0 (20140413.2041)
 -->
<!-- Title: G Pages: 1 -->
<svg width="274pt" height="220pt"
 viewBox="7.20 7.20 266.56 213.20" xmlns="http://www.w3.org/2000/svg" xmlns:xlink="http://www.w3.org/1999/xlink">
<g id="graph0" class="graph" transform="scale(1 1) rotate(0) translate(11.2 209.2)">
<title>G</title>
<polygon fill="white" stroke="none" points="-4,4 -4,-202 255.355,-202 255.355,4 -4,4"/>
<!-- E1 -->
<g id="node1" class="node"><title>E1</title>
<ellipse fill="none" stroke="black" cx="17.6777" cy="-126" rx="17.8571" ry="17.8571"/>
<text text-anchor="middle" x="17.6777" y="-122.3" font-family="Times New Roman,serif" font-size="14.00">E</text>
</g>
<!-- A2 -->
<g id="node2" class="node"><title>A2</title>
<ellipse fill="none" stroke="black" cx="89.3553" cy="-180" rx="18" ry="18"/>
<text text-anchor="middle" x="89.3553" y="-176.3" font-family="Times New Roman,serif" font-size="14.00">A</text>
</g>
<!-- E1&#45;&gt;A2 -->
<g id="edge1" class="edge"><title>E1&#45;&gt;A2</title>
<path fill="none" stroke="black" d="M32.1122,-136.412C41.8183,-143.934 55.1432,-154.261 66.387,-162.975"/>
<polygon fill="black" stroke="black" points="64.4369,-165.891 74.4851,-169.251 68.7249,-160.358 64.4369,-165.891"/>
</g>
<!-- =3 -->
<g id="node3" class="node"><title>=3</title>
<ellipse fill="none" stroke="black" cx="89.3553" cy="-126" rx="18" ry="18"/>
<text text-anchor="middle" x="89.3553" y="-122.3" font-family="Times New Roman,serif" font-size="14.00">=</text>
</g>
<!-- E1&#45;&gt;=3 -->
<g id="edge2" class="edge"><title>E1&#45;&gt;=3</title>
<path fill="none" stroke="black" d="M35.5447,-126C43.2185,-126 52.4943,-126 61.1171,-126"/>
<polygon fill="black" stroke="black" points="61.1596,-129.5 71.1596,-126 61.1596,-122.5 61.1596,-129.5"/>
</g>
<!-- A4 -->
<g id="node4" class="node"><title>A4</title>
<ellipse fill="none" stroke="black" cx="89.3553" cy="-72" rx="18" ry="18"/>
<text text-anchor="middle" x="89.3553" y="-68.3" font-family="Times New Roman,serif" font-size="14.00">A</text>
</g>
<!-- E1&#45;&gt;A4 -->
<g id="edge3" class="edge"><title>E1&#45;&gt;A4</title>
<path fill="none" stroke="black" d="M32.1122,-115.588C41.8183,-108.066 55.1432,-97.7393 66.387,-89.0254"/>
<polygon fill="black" stroke="black" points="68.7249,-91.6416 74.4851,-82.7494 64.4369,-86.1087 68.7249,-91.6416"/>
</g>
<!-- a9 -->
<g id="node9" class="node"><title>a9</title>
<ellipse fill="none" stroke="black" cx="161.355" cy="-180" rx="18" ry="18"/>
<text text-anchor="middle" x="161.355" y="-176.3" font-family="Times New Roman,serif" font-size="14.00">a</text>
</g>
<!-- A2&#45;&gt;a9 -->
<g id="edge8" class="edge"><title>A2&#45;&gt;a9</title>
<path fill="none" stroke="black" d="M107.659,-180C115.373,-180 124.643,-180 133.243,-180"/>
<polygon fill="black" stroke="black" points="133.251,-183.5 143.251,-180 133.251,-176.5 133.251,-183.5"/>
</g>
<!-- A5 -->
<g id="node5" class="node"><title>A5</title>
<ellipse fill="none" stroke="black" cx="161.355" cy="-126" rx="18" ry="18"/>
<text text-anchor="middle" x="161.355" y="-122.3" font-family="Times New Roman,serif" font-size="14.00">A</text>
</g>
<!-- A4&#45;&gt;A5 -->
<g id="edge4" class="edge"><title>A4&#45;&gt;A5</title>
<path fill="none" stroke="black" d="M104.185,-82.6687C113.964,-90.2126 127.275,-100.481 138.485,-109.129"/>
<polygon fill="black" stroke="black" points="136.499,-112.017 146.554,-115.354 140.774,-106.474 136.499,-112.017"/>
</g>
<!-- +6 -->
<g id="node6" class="node"><title>+6</title>
<ellipse fill="none" stroke="black" cx="161.355" cy="-72" rx="18" ry="18"/>
<text text-anchor="middle" x="161.355" y="-68.3" font-family="Times New Roman,serif" font-size="14.00">+</text>
</g>
<!-- A4&#45;&gt;+6 -->
<g id="edge5" class="edge"><title>A4&#45;&gt;+6</title>
<path fill="none" stroke="black" d="M107.659,-72C115.373,-72 124.643,-72 133.243,-72"/>
<polygon fill="black" stroke="black" points="133.251,-75.5001 143.251,-72 133.251,-68.5001 133.251,-75.5001"/>
</g>
<!-- a7 -->
<g id="node7" class="node"><title>a7</title>
<ellipse fill="none" stroke="black" cx="161.355" cy="-18" rx="18" ry="18"/>
<text text-anchor="middle" x="161.355" y="-14.3" font-family="Times New Roman,serif" font-size="14.00">a</text>
</g>
<!-- A4&#45;&gt;a7 -->
<g id="edge6" class="edge"><title>A4&#45;&gt;a7</title>
<path fill="none" stroke="black" d="M104.185,-61.3313C113.964,-53.7874 127.275,-43.5188 138.485,-34.8713"/>
<polygon fill="black" stroke="black" points="140.774,-37.5258 146.554,-28.6465 136.499,-31.9833 140.774,-37.5258"/>
</g>
<!-- a8 -->
<g id="node8" class="node"><title>a8</title>
<ellipse fill="none" stroke="black" cx="233.355" cy="-126" rx="18" ry="18"/>
<text text-anchor="middle" x="233.355" y="-122.3" font-family="Times New Roman,serif" font-size="14.00">a</text>
</g>
<!-- A5&#45;&gt;a8 -->
<g id="edge7" class="edge"><title>A5&#45;&gt;a8</title>
<path fill="none" stroke="black" d="M179.659,-126C187.373,-126 196.643,-126 205.243,-126"/>
<polygon fill="black" stroke="black" points="205.251,-129.5 215.251,-126 205.251,-122.5 205.251,-129.5"/>
</g>
</g>
</svg>
