<?xml version="1.0" encoding="UTF-8" standalone="no"?>
<!DOCTYPE svg PUBLIC "-//W3C//DTD SVG 1.1//EN"
 "http://www.w3.org/Graphics/SVG/1.1/DTD/svg11.dtd">
<!-- Generated by graphviz version 2.40.1 (20161225.0304)
 -->
<!-- Title: G Pages: 1 -->
<svg width="277pt" height="276pt"
 viewBox="7.20 7.20 269.67 269.20" xmlns="http://www.w3.org/2000/svg" xmlns:xlink="http://www.w3.org/1999/xlink">
<g id="graph0" class="graph" transform="scale(1 1) rotate(0) translate(11.2 265.2)">
<title>G</title>
<polygon fill="#ffffff" stroke="transparent" points="-4,4 -4,-258 258.4662,-258 258.4662,4 -4,4"/>
<!-- S1 -->
<g id="node1" class="node">
<title>S1</title>
<ellipse fill="none" stroke="#000000" cx="18.3848" cy="-127" rx="18.2703" ry="18.2703"/>
<text text-anchor="middle" x="18.3848" y="-123.3" font-family="Times,serif" font-size="14.00" fill="#000000">S</text>
</g>
<!-- )2 -->
<g id="node2" class="node">
<title>)2</title>
<ellipse fill="none" stroke="#000000" cx="91.6179" cy="-236" rx="18" ry="18"/>
<text text-anchor="middle" x="91.6179" y="-232.3" font-family="Times,serif" font-size="14.00" fill="#000000">)</text>
</g>
<!-- S1&#45;&gt;)2 -->
<g id="edge1" class="edge">
<title>S1&#45;&gt;)2</title>
<path fill="none" stroke="#000000" d="M28.4998,-142.4887C39.3395,-159.0309 57.1041,-185.9801 72.7696,-209 73.6138,-210.2406 74.4831,-211.5107 75.3634,-212.7911"/>
<polygon fill="#000000" stroke="#000000" points="72.6113,-214.9645 81.1844,-221.1895 78.3644,-210.9769 72.6113,-214.9645"/>
</g>
<!-- F3 -->
<g id="node3" class="node">
<title>F3</title>
<ellipse fill="none" stroke="#000000" cx="91.6179" cy="-182" rx="18" ry="18"/>
<text text-anchor="middle" x="91.6179" y="-178.3" font-family="Times,serif" font-size="14.00" fill="#000000">F</text>
</g>
<!-- S1&#45;&gt;F3 -->
<g id="edge2" class="edge">
<title>S1&#45;&gt;F3</title>
<path fill="none" stroke="#000000" d="M33.2046,-138.1301C43.3294,-145.7341 56.9499,-155.9634 68.4916,-164.6316"/>
<polygon fill="#000000" stroke="#000000" points="66.7222,-167.6798 76.8201,-170.8865 70.9259,-162.0826 66.7222,-167.6798"/>
</g>
<!-- +4 -->
<g id="node4" class="node">
<title>+4</title>
<ellipse fill="none" stroke="#000000" cx="91.6179" cy="-127" rx="18.6979" ry="18.6979"/>
<text text-anchor="middle" x="91.6179" y="-123.3" font-family="Times,serif" font-size="14.00" fill="#000000">+</text>
</g>
<!-- S1&#45;&gt;+4 -->
<g id="edge3" class="edge">
<title>S1&#45;&gt;+4</title>
<path fill="none" stroke="#000000" d="M36.8646,-127C44.6366,-127 53.8671,-127 62.5136,-127"/>
<polygon fill="#000000" stroke="#000000" points="62.6335,-130.5001 72.6335,-127 62.6335,-123.5001 62.6335,-130.5001"/>
</g>
<!-- S5 -->
<g id="node5" class="node">
<title>S5</title>
<ellipse fill="none" stroke="#000000" cx="91.6179" cy="-72" rx="18" ry="18"/>
<text text-anchor="middle" x="91.6179" y="-68.3" font-family="Times,serif" font-size="14.00" fill="#000000">S</text>
</g>
<!-- S1&#45;&gt;S5 -->
<g id="edge4" class="edge">
<title>S1&#45;&gt;S5</title>
<path fill="none" stroke="#000000" d="M33.2046,-115.8699C43.3294,-108.2659 56.9499,-98.0366 68.4916,-89.3684"/>
<polygon fill="#000000" stroke="#000000" points="70.9259,-91.9174 76.8201,-83.1135 66.7222,-86.3202 70.9259,-91.9174"/>
</g>
<!-- (6 -->
<g id="node6" class="node">
<title>(6</title>
<ellipse fill="none" stroke="#000000" cx="91.6179" cy="-18" rx="18" ry="18"/>
<text text-anchor="middle" x="91.6179" y="-14.3" font-family="Times,serif" font-size="14.00" fill="#000000">(</text>
</g>
<!-- S1&#45;&gt;(6 -->
<g id="edge5" class="edge">
<title>S1&#45;&gt;(6</title>
<path fill="none" stroke="#000000" d="M28.4998,-111.5113C39.3395,-94.9691 57.1041,-68.0199 72.7696,-45 73.6138,-43.7594 74.4831,-42.4893 75.3634,-41.2089"/>
<polygon fill="#000000" stroke="#000000" points="78.3644,-43.0231 81.1844,-32.8105 72.6113,-39.0355 78.3644,-43.0231"/>
</g>
<!-- a9 -->
<g id="node9" class="node">
<title>a9</title>
<ellipse fill="none" stroke="#000000" cx="164.4662" cy="-182" rx="18" ry="18"/>
<text text-anchor="middle" x="164.4662" y="-178.3" font-family="Times,serif" font-size="14.00" fill="#000000">a</text>
</g>
<!-- F3&#45;&gt;a9 -->
<g id="edge8" class="edge">
<title>F3&#45;&gt;a9</title>
<path fill="none" stroke="#000000" d="M109.6253,-182C117.6808,-182 127.3671,-182 136.343,-182"/>
<polygon fill="#000000" stroke="#000000" points="136.4135,-185.5001 146.4134,-182 136.4134,-178.5001 136.4135,-185.5001"/>
</g>
<!-- F7 -->
<g id="node7" class="node">
<title>F7</title>
<ellipse fill="none" stroke="#000000" cx="164.4662" cy="-72" rx="18" ry="18"/>
<text text-anchor="middle" x="164.4662" y="-68.3" font-family="Times,serif" font-size="14.00" fill="#000000">F</text>
</g>
<!-- S5&#45;&gt;F7 -->
<g id="edge6" class="edge">
<title>S5&#45;&gt;F7</title>
<path fill="none" stroke="#000000" d="M109.6253,-72C117.6808,-72 127.3671,-72 136.343,-72"/>
<polygon fill="#000000" stroke="#000000" points="136.4135,-75.5001 146.4134,-72 136.4134,-68.5001 136.4135,-75.5001"/>
</g>
<!-- a8 -->
<g id="node8" class="node">
<title>a8</title>
<ellipse fill="none" stroke="#000000" cx="236.4662" cy="-72" rx="18" ry="18"/>
<text text-anchor="middle" x="236.4662" y="-68.3" font-family="Times,serif" font-size="14.00" fill="#000000">a</text>
</g>
<!-- F7&#45;&gt;a8 -->
<g id="edge7" class="edge">
<title>F7&#45;&gt;a8</title>
<path fill="none" stroke="#000000" d="M182.6348,-72C190.3353,-72 199.4919,-72 208.0496,-72"/>
<polygon fill="#000000" stroke="#000000" points="208.053,-75.5001 218.0529,-72 208.0529,-68.5001 208.053,-75.5001"/>
</g>
</g>
</svg>
